<?xml version="1.0" encoding="UTF-8" standalone="no"?>
<!DOCTYPE svg PUBLIC "-//W3C//DTD SVG 1.1//EN" "http://www.w3.org/Graphics/SVG/1.1/DTD/svg11.dtd">
<svg width="100%" height="100%" viewBox="0 0 64 64" version="1.1" xmlns="http://www.w3.org/2000/svg" xmlns:xlink="http://www.w3.org/1999/xlink" xml:space="preserve" xmlns:serif="http://www.serif.com/" style="fill-rule:evenodd;clip-rule:evenodd;stroke-linejoin:round;stroke-miterlimit:2;">
    <g id="BaseShape">
        <path d="M64,12L64,52C64,58.623 58.623,64 52,64L12,64C5.377,64 0,58.623 0,52L0,12C0,5.377 5.377,0 12,0L52,0C58.623,0 64,5.377 64,12Z" style="fill:url(#_Linear1);"/>
    </g>
    <g transform="matrix(1,0,0,1,-0.2,0)">
        <g id="Icon">
            <g>
                <g transform="matrix(0.677395,0,0,0.677395,10.3879,10.3234)">
                    <path d="M32.2,0C14.554,0 0.2,14.353 0.2,32C0.2,49.647 14.554,64 32.2,64C49.846,64 64.2,49.646 64.2,32C64.2,14.354 49.846,0 32.2,0ZM32.2,4.795C47.257,4.795 59.418,16.943 59.418,31.999C59.418,47.055 47.257,59.204 32.2,59.204C17.144,59.204 4.996,47.056 4.996,32C4.996,16.944 17.144,4.795 32.2,4.795Z" style="fill:rgb(66,122,179);fill-rule:nonzero;"/>
                </g>
                <g transform="matrix(0.677395,0,0,0.677395,10.3879,10.3234)">
                    <path d="M42.907,18.892C41.601,18.844 39.622,19.87 37.843,21.639L34.007,25.454L22.511,21.594L20.269,23.908L28.937,30.495L26.999,32.423C26.358,33.06 25.787,33.763 25.295,34.521L20.072,34.131L18.798,35.423L23.992,39.269L27.79,44.453L29.07,43.17L28.684,37.896C29.342,37.465 30.014,36.93 30.661,36.286L32.701,34.257L39.353,42.992L41.667,40.75L37.789,29.198L41.505,25.503C43.877,23.143 44.97,20.382 43.956,19.312C43.703,19.044 43.343,18.908 42.907,18.892Z" style="fill:rgb(66,122,179);fill-rule:nonzero;"/>
                </g>
            </g>
        </g>
    </g>
    <defs>
        <linearGradient id="_Linear1" x1="0" y1="0" x2="1" y2="0" gradientUnits="userSpaceOnUse" gradientTransform="matrix(15.5,60,-60,15.5,28.5,1)"><stop offset="0" style="stop-color:white;stop-opacity:1"/><stop offset="1" style="stop-color:white;stop-opacity:1"/></linearGradient>
    </defs>
</svg>
