<?xml version="1.0" encoding="UTF-8" standalone="no"?>
<!DOCTYPE svg PUBLIC "-//W3C//DTD SVG 1.1//EN" "http://www.w3.org/Graphics/SVG/1.1/DTD/svg11.dtd">
<svg width="100%" height="100%" viewBox="0 0 64 64" version="1.1" xmlns="http://www.w3.org/2000/svg" xmlns:xlink="http://www.w3.org/1999/xlink" xml:space="preserve" xmlns:serif="http://www.serif.com/" style="fill-rule:evenodd;clip-rule:evenodd;stroke-linejoin:round;stroke-miterlimit:2;">
    <g id="BaseShape">
        <path d="M64,12L64,52C64,58.623 58.623,64 52,64L12,64C5.377,64 0,58.623 0,52L0,12C0,5.377 5.377,0 12,0L52,0C58.623,0 64,5.377 64,12Z" style="fill:rgb(229,130,36);"/>
        <g transform="matrix(0.0409127,0,0,0.0409127,32,32)">
            <g id="Icon">
                <g transform="matrix(1,0,0,1,-512,-488)">
                    <clipPath id="_clip1">
                        <rect x="0" y="0" width="1024" height="976"/>
                    </clipPath>
                    <g clip-path="url(#_clip1)">
                        <g>
                            <path d="M773.5,-0.5L777.5,-0.5C792.492,14.992 807.659,30.325 823,45.5C824.289,47.055 824.956,48.722 825,50.5C769.703,107.462 714.036,163.462 658,218.5C657.333,219.833 657.333,221.167 658,222.5C673.471,236.971 688.638,251.804 703.5,267C704.167,267.667 704.833,267.667 705.5,267C761.539,210.124 818.206,154.291 875.5,99.5C892.968,115.135 909.635,131.635 925.5,149C869.325,205.844 812.991,262.844 756.5,320C771.833,335.333 787.167,350.667 802.5,366C803.5,366.667 804.5,366.667 805.5,366C858.306,312.439 911.306,259.106 964.5,206C967.35,203.156 970.517,200.656 974,198.5C975.225,198.862 976.391,199.362 977.5,200C992.701,215.368 1008.03,230.535 1023.5,245.5L1023.5,250.5C961.133,311.363 898.8,373.197 836.5,436C823.474,448.028 810.474,460.028 797.5,472C783.512,483.998 768.179,493.998 751.5,502C708.188,513.267 670.521,503.6 638.5,473C636.305,471.627 633.971,471.294 631.5,472C628.249,473.577 625.249,475.577 622.5,478C602.832,498.001 582.832,517.668 562.5,537C648.098,621.6 732.932,706.1 817,790.5C852.026,826.605 887.193,862.605 922.5,898.5C923.485,900.098 923.651,901.765 923,903.5C900.914,925.586 878.748,947.752 856.5,970C854.359,971.308 852.359,972.808 850.5,974.5C848.641,972.808 846.641,971.308 844.5,970C725.275,850.607 606.275,731.774 487.5,613.5C366.479,733.854 245.812,854.521 125.5,975.5L121.5,975.5C98.115,951.276 74.282,926.943 50,902.5C49.333,901.167 49.333,899.833 50,898.5C218.667,729.833 387.333,561.167 556,392.5C556.667,391.5 556.667,390.5 556,389.5C551.14,385.061 546.473,380.395 542,375.5C534.552,362.938 527.885,349.938 522,336.5C513.574,309.676 515.574,283.676 528,258.5C530.639,254.361 533.472,250.361 536.5,246.5C551.596,229.58 566.762,212.914 582,196.5C646.03,130.314 709.863,64.647 773.5,-0.5Z" style="fill:white;fill-opacity:0.98;"/>
                        </g>
                        <g>
                            <path d="M-0.5,214.5L-0.5,160.5C4.275,128.345 15.108,98.345 32,70.5C37.618,62.547 43.618,54.88 50,47.5C53.358,44.642 56.858,41.975 60.5,39.5C61.5,40 62.5,40.5 63.5,41C79.423,56.517 95.757,71.85 112.5,87C162.528,137.361 212.861,187.361 263.5,237C316.693,291.193 370.193,345.026 424,398.5C425.848,401.011 427.681,403.511 429.5,406C381.847,455.986 333.181,504.986 283.5,553C282.167,553.667 280.833,553.667 279.5,553C216.712,490.879 153.879,428.045 91,364.5C69.249,342.279 48.915,318.945 30,294.5C24.665,286.132 19.665,277.465 15,268.5C11.17,259.363 7.837,250.029 5,240.5C3.448,231.643 1.614,222.976 -0.5,214.5Z" style="fill:white;fill-opacity:0.99;"/>
                        </g>
                    </g>
                </g>
            </g>
        </g>
    </g>
</svg>
